<svg height="480pt" viewBox="0 -40 480.00822 480" width="480pt" xmlns="http://www.w3.org/2000/svg"><path d="m184.003906 8.003906c43.011719-.074218 84.222656 17.269532 114.238282 48.082032-.746094-.066407-1.492188-.09375-2.238282-.082032-64.421875.011719-122.550781 38.652344-147.496094 98.042969-24.945312 59.394531-11.839843 127.953125 33.253907 173.957031-30.453125-.464844-60.144531-9.59375-85.601563-26.320312l-88.15625 42.320312 38.078125-95.199218c-29.097656-49.433594-29.460937-110.667969-.953125-160.441407 28.511719-49.773437 81.511719-80.445312 138.875-80.359375zm0 0" fill="#bddbff"/><g fill="#3d9ae2"><path d="m479.433594 389.027344-36.648438-91.589844c28.492188-51.097656 28.277344-113.355469-.566406-164.257812-28.84375-50.902344-82.140625-83.078126-140.617188-84.894532-31.25-31.046875-73.550781-48.410156-117.597656-48.28124975-59.523437-.08593745-114.632812 31.37109375-144.820312 82.66796875-30.191406 51.296875-30.9375 114.746094-1.964844 166.742187l-36.648438 91.613282c-1.222656 3.0625-.441406 6.5625 1.96875 8.8125 2.410157 2.253906 5.953126 2.792968 8.925782 1.363281l84.152344-40.390625c24.972656 15.410156 53.535156 24.042969 82.863281 25.039062 55.105469 54.253907 140.183593 63.746094 205.890625 22.96875l84.167968 40.382813c1.078126.527344 2.261719.800781 3.464844.800781 2.65625.003906 5.140625-1.3125 6.628906-3.511718 1.488282-2.203126 1.789063-4.996094.800782-7.464844zm-386.734375-94.550782-69.601563 33.425782 30.449219-76.121094c.917969-2.292969.726563-4.882812-.519531-7.015625-27.648438-46.953125-28-105.121094-.925782-152.40625 27.070313-47.285156 77.414063-76.425781 131.902344-76.355469 34.261719-.085937 67.523438 11.542969 94.269532 32.960938-60.53125 6.324218-112.882813 44.953125-136.78125 100.925781-23.898438 55.972656-15.589844 120.5 21.710937 168.59375-22.359375-3.121094-43.753906-11.144531-62.648437-23.496094-2.34375-1.546875-5.332032-1.742187-7.855469-.511719zm294.574219 48c-2.53125-1.214843-5.511719-1.011718-7.855469.527344-64.804688 42.785156-151.390625 30.160156-201.28125-29.347656-49.890625-59.503906-47.210938-146.96875 6.222656-203.3125 53.4375-56.34375 140.632813-63.652344 202.699219-16.984375s79.257812 132.464844 39.96875 199.445313c-1.253906 2.132812-1.449219 4.726562-.527344 7.023437l30.445312 76.113281zm0 0"/><path d="m232.003906 240.003906h16v16h-16zm0 0"/><path d="m264.003906 240.003906h16v16h-16zm0 0"/><path d="m296.003906 240.003906h80v16h-80zm0 0"/><path d="m232.003906 208.003906h80v16h-80zm0 0"/><path d="m328.003906 208.003906h16v16h-16zm0 0"/><path d="m360.003906 208.003906h16v16h-16zm0 0"/><path d="m232.003906 176.003906h144v16h-144zm0 0"/><path d="m184.003906 40.003906c-70.660156.085938-127.917968 57.34375-128 128h16c.0625-61.828125 50.167969-111.933594 112-112zm0 0"/></g></svg>