<svg height="52pt" viewBox="0 -4 512 511" width="52pt" xmlns="http://www.w3.org/2000/svg"><path d="m486.398438 205.300781h-25.597657v-105.328125c0-3.746094-1.484375-7.34375-4.132812-9.996094-2.648438-2.648437-6.242188-4.140624-9.992188-4.144531h-20.007812v-65.3125c0-6.34375-5.144531-11.484375-11.488281-11.484375h-318.359376c-6.34375 0-11.488281 5.140625-11.488281 11.484375v65.3125h-20.007812c-3.75.003907-7.34375 1.496094-9.992188 4.144531-2.648437 2.652344-4.132812 6.25-4.132812 9.996094v105.328125h-25.597657c-9.425781 0-17.066406 7.640625-17.066406 17.066407v264.53125c0 9.425781 7.640625 17.066406 17.066406 17.066406h460.796876c9.425781 0 17.066406-7.640625 17.066406-17.066406v-264.53125c0-9.425782-7.640625-17.066407-17.066406-17.066407zm0 0" fill="#f0c419"/><path d="m497.238281 209.226562-4.097656 4.605469-161.707031 134.742188-54.1875 45.140625c-12.28125 10.324218-30.210938 10.324218-42.492188 0l-54.1875-45.140625-163.5-136.277344-4.609375-.765625c3.21875-3.953125 8.046875-6.242188 13.144531-6.230469h460.796876c3.960937-.003906 7.800781 1.386719 10.839843 3.925781zm0 0" fill="#f0c419"/><path d="m180.566406 348.574219-1.367187 1.707031-162.132813 136.535156h-8.53125v-264.449218c-.003906-3.960938 1.382813-7.796876 3.921875-10.835938l4.609375.765625zm0 0" fill="#f29c1f"/><path d="m503.464844 486.816406v.082032c-.027344 9.414062-7.652344 17.039062-17.066406 17.066406h-460.796876c-9.414062-.027344-17.039062-7.652344-17.066406-17.066406v-.082032h8.53125l162.132813-136.535156 1.367187-1.707031 54.1875 45.140625c12.28125 10.324218 30.210938 10.324218 42.492188 0l54.1875-45.140625 1.367187 1.707031 162.132813 136.535156zm0 0" fill="#e57e25"/><path d="m503.464844 222.367188v264.449218h-8.53125l-162.132813-136.535156-1.367187-1.707031 161.707031-134.742188 4.097656-4.605469c3.949219 3.214844 6.238281 8.042969 6.226563 13.140626zm0 0" fill="#f29c1f"/><path d="m456.703125 89.929688-4.4375 4.4375-170.664063 110.933593h-51.203124l-170.664063-110.933593-7.167969-.511719 1.023438-1.792969c2.640625-3.90625 7.058594-6.242188 11.777344-6.230469h381.265624c3.769532-.023437 7.390626 1.449219 10.070313 4.097657zm0 0" fill="#f9eab0"/><path d="m230.398438 205.300781h-179.199219v-105.300781c.007812-2.125.472656-4.21875 1.367187-6.144531l7.167969.511719zm0 0" fill="#f3d55b"/><path d="m423.339844 12.363281-5.207032 5.203125-128 68.265625h-68.265624l-128-68.265625-7.59375-1.535156c1.792968-4.253906 5.964843-7.011719 10.578124-6.996094h318.296876c3.054687.007813 5.992187 1.199219 8.191406 3.328125zm0 0" fill="#f0c419"/><path d="m426.667969 20.554688v65.277343h-136.535157l128-68.265625 5.207032-5.203125c2.125 2.195313 3.316406 5.132813 3.328125 8.191407zm0 0" fill="#f29c1f"/><path d="m460.800781 100v105.300781h-179.199219l170.664063-110.933593 4.4375-4.4375c2.648437 2.679687 4.125 6.300781 4.097656 10.070312zm0 0" fill="#f3d55b"/><path d="m221.867188 85.832031h-136.535157v-65.277343c0-1.558594.320313-3.097657.941407-4.523438l7.59375 1.535156zm0 0" fill="#f29c1f"/><g fill="#e64c3c"><path d="m512 94.367188c0 4.710937-3.820312 8.53125-8.535156 8.53125-4.710938 0-8.53125-3.820313-8.53125-8.53125 0-4.714844 3.820312-8.535157 8.53125-8.535157 4.714844 0 8.535156 3.820313 8.535156 8.535157zm0 0"/><path d="m503.464844 68.765625c-4.710938 0-8.53125-3.820313-8.53125-8.53125v-51.199219c0-4.714844 3.820312-8.535156 8.53125-8.535156 4.714844 0 8.535156 3.820312 8.535156 8.535156v51.199219c0 4.710937-3.820312 8.53125-8.535156 8.53125zm0 0"/><path d="m17.066406 171.167969c0 4.710937-3.820312 8.53125-8.53125 8.53125-4.714844 0-8.535156-3.820313-8.535156-8.53125 0-4.714844 3.820312-8.535157 8.535156-8.535157 4.710938 0 8.53125 3.820313 8.53125 8.535157zm0 0"/><path d="m8.535156 145.566406c-4.714844 0-8.535156-3.820312-8.535156-8.53125v-51.203125c0-4.710937 3.820312-8.53125 8.535156-8.53125 4.710938 0 8.53125 3.820313 8.53125 8.53125v51.203125c0 4.710938-3.820312 8.53125-8.53125 8.53125zm0 0"/></g></svg>